<?xml version="1.0" standalone="no"?><!DOCTYPE svg PUBLIC "-//W3C//DTD SVG 1.1//EN" "http://www.w3.org/Graphics/SVG/1.1/DTD/svg11.dtd"><svg t="1573818644738" class="icon" viewBox="0 0 1024 1024" version="1.1" xmlns="http://www.w3.org/2000/svg" p-id="1163" xmlns:xlink="http://www.w3.org/1999/xlink" width="200" height="200"><defs><style type="text/css"></style></defs><path d="M197.824 64h628.352C864.736 64 896 94.848 896 132.928v758.144c0 38.08-31.264 68.928-69.824 68.928H197.824C159.264 960 128 929.152 128 891.072V132.928C128 94.848 159.264 64 197.824 64zM192 160v704a32 32 0 0 0 32 32h576a32 32 0 0 0 32-32V160a32 32 0 0 0-32-32H224a32 32 0 0 0-32 32z" fill="#026BFF" p-id="1164"></path><path d="M288 256m32 0l320 0q32 0 32 32l0 0q0 32-32 32l-320 0q-32 0-32-32l0 0q0-32 32-32Z" fill="#80B5FF" p-id="1165"></path><path d="M288 416m32 0l320 0q32 0 32 32l0 0q0 32-32 32l-320 0q-32 0-32-32l0 0q0-32 32-32Z" fill="#80B5FF" p-id="1166"></path><path d="M288 576m32 0l128 0q32 0 32 32l0 0q0 32-32 32l-128 0q-32 0-32-32l0 0q0-32 32-32Z" fill="#80B5FF" p-id="1167"></path></svg>