<?xml version="1.0" standalone="no"?><!DOCTYPE svg PUBLIC "-//W3C//DTD SVG 1.1//EN" "http://www.w3.org/Graphics/SVG/1.1/DTD/svg11.dtd"><svg t="1573818867313" class="icon" viewBox="0 0 1024 1024" version="1.1" xmlns="http://www.w3.org/2000/svg" p-id="1076" xmlns:xlink="http://www.w3.org/1999/xlink" width="200" height="200"><defs><style type="text/css"></style></defs><path d="M160 96h248.704a64 64 0 0 1 58.976 39.104l36.064 85.44a32 32 0 0 0 29.472 19.52H864a64 64 0 0 1 64 64V864a64 64 0 0 1-64 64H160a64 64 0 0 1-64-64V160a64 64 0 0 1 64-64z" fill="#026BFF" p-id="1077"></path><path d="M320 640m32 0l320 0q32 0 32 32l0 0q0 32-32 32l-320 0q-32 0-32-32l0 0q0-32 32-32Z" fill="#80B5FF" p-id="1078"></path></svg>